<svg width="286" height="47" viewBox="0 0 286 47" fill="none" xmlns="http://www.w3.org/2000/svg">
<rect width="286" height="47" fill="white"/>
<rect x="11" y="9" width="31" height="31" fill="#FF4723"/>
<path d="M12.219 39.581C12.993 39.581 14.208 38.33 15.864 35.828C17.538 33.344 19.023 30.86 20.319 28.376C21.615 25.892 22.263 24.524 22.263 24.272C22.263 24.002 22.191 23.867 22.047 23.867C21.903 23.867 21.66 24.011 21.318 24.299C20.976 24.569 20.607 24.875 20.211 25.217C19.833 25.559 19.338 25.865 18.726 26.135C18.132 26.423 17.538 26.567 16.944 26.567C16.206 26.567 15.837 26.018 15.837 24.92C15.837 24.038 16.08 23.048 16.566 21.95C17.052 20.834 17.718 19.763 18.564 18.737C19.41 17.693 20.517 16.82 21.885 16.118C23.253 15.416 24.72 15.065 26.286 15.065C26.682 15.065 27.114 15.137 27.582 15.281C28.518 15.569 28.986 16.091 28.986 16.847C28.986 17.387 28.833 17.657 28.527 17.657C28.437 17.657 28.284 17.594 28.068 17.468C27.42 17.036 26.421 16.82 25.071 16.82C23.721 16.82 22.407 17.495 21.129 18.845C19.869 20.177 19.239 21.482 19.239 22.76C19.239 23.21 19.428 23.435 19.806 23.435C20.382 23.435 21.174 23.03 22.182 22.22C23.208 21.392 24.225 20.177 25.233 18.575C25.287 18.323 25.701 18.197 26.475 18.197C27.249 18.197 27.636 18.332 27.636 18.602C27.636 18.8 27.006 20.096 25.746 22.49C24.504 24.866 23.451 26.819 22.587 28.349C21.723 29.897 20.679 31.607 19.455 33.479C18.249 35.351 17.106 36.962 16.026 38.312C14.946 39.662 13.821 40.796 12.651 41.714C11.481 42.65 10.437 43.118 9.519 43.118C8.763 43.118 8.385 42.488 8.385 41.228C8.385 39.968 8.754 38.564 9.492 37.016C10.23 35.486 11.121 34.073 12.165 32.777C13.191 31.499 14.289 30.41 15.459 29.51C16.629 28.61 17.61 28.16 18.402 28.16H18.483C18.699 28.16 18.807 28.223 18.807 28.349C18.807 28.475 18.699 28.592 18.483 28.7C17.799 29.042 16.926 29.798 15.864 30.968C14.82 32.156 13.875 33.515 13.029 35.045C12.165 36.575 11.733 37.862 11.733 38.906V38.933C11.733 39.365 11.895 39.581 12.219 39.581ZM37.4851 26.162C37.2331 26.162 37.0081 26.045 36.8101 25.811C36.6301 25.577 36.5131 25.343 36.4591 25.109L36.3781 24.758C36.3241 24.56 36.1891 24.461 35.9731 24.461C35.7751 24.461 35.5951 24.524 35.4331 24.65C33.7411 25.982 32.1661 26.648 30.7081 26.648C28.8361 26.648 27.9001 25.397 27.9001 22.895C27.9001 22.013 28.1251 20.915 28.5751 19.601C29.0431 18.287 29.7091 16.919 30.5731 15.497C31.4371 14.057 32.4091 12.716 33.4891 11.474C34.5871 10.214 35.8471 9.179 37.2691 8.369C38.7091 7.559 40.1401 7.154 41.5621 7.154C42.3361 7.154 42.9661 7.289 43.4521 7.559C43.5241 7.595 43.6051 7.613 43.6951 7.613C43.7851 7.613 43.8751 7.586 43.9651 7.532C44.4151 7.226 44.9911 7.073 45.6931 7.073C46.3951 7.073 46.7461 7.244 46.7461 7.586C46.7461 8.018 46.2961 8.873 45.3961 10.151C43.9921 12.149 42.8401 13.148 41.9401 13.148C41.7061 13.148 41.5441 13.13 41.4541 13.094C41.3821 13.058 41.3461 12.986 41.3461 12.878C41.3461 12.77 41.4001 12.59 41.5081 12.338C41.8681 11.582 42.0481 10.961 42.0481 10.475C42.0481 9.971 41.9491 9.593 41.7511 9.341C41.5711 9.071 41.1841 8.936 40.5901 8.936C39.5101 8.936 38.2231 9.755 36.7291 11.393C35.2531 13.013 33.9841 14.894 32.9221 17.036C31.8601 19.16 31.3291 20.915 31.3291 22.301C31.3291 23.471 31.8151 24.056 32.7871 24.056C33.5431 24.056 34.3981 23.669 35.3521 22.895C36.3241 22.121 37.1161 21.293 37.7281 20.411C38.3581 19.511 38.6731 18.872 38.6731 18.494C38.6731 18.098 38.4841 17.828 38.1061 17.684C37.7281 17.522 36.9991 17.441 35.9191 17.441C35.7031 17.441 35.5951 17.36 35.5951 17.198C35.5951 16.892 35.7661 16.577 36.1081 16.253C36.4681 15.929 36.8101 15.749 37.1341 15.713C38.4301 15.623 39.7891 15.578 41.2111 15.578C42.6511 15.578 43.3711 15.704 43.3711 15.956C43.3711 16.172 43.2451 16.505 42.9931 16.955C42.7591 17.405 42.5611 17.774 42.3991 18.062C42.2551 18.332 42.0301 18.719 41.7241 19.223C41.4361 19.709 41.2021 20.096 41.0221 20.384C40.8421 20.672 40.5631 21.113 40.1851 21.707C39.8251 22.283 39.5371 22.751 39.3211 23.111C39.1051 23.471 38.8351 23.948 38.5111 24.542C38.2051 25.136 37.9801 25.559 37.8361 25.811C37.6921 26.045 37.5751 26.162 37.4851 26.162Z" fill="#333333"/>
<path d="M47.0547 25.916C47.0547 25.3757 47.1296 24.8451 47.2793 24.3242C47.429 23.7969 47.6504 23.2956 47.9434 22.8203C48.2363 22.3451 48.5977 21.9056 49.0273 21.502C49.4635 21.0918 49.9648 20.7402 50.5312 20.4473C51.0977 20.1478 51.7259 19.9167 52.416 19.7539C53.1126 19.5846 53.8678 19.5 54.6816 19.5C55.7624 19.5 56.6934 19.64 57.4746 19.9199C58.2559 20.1999 58.9427 20.584 59.5352 21.0723V19.8418H61.8398V23.3574H59.5352C59.2292 22.9863 58.9036 22.6608 58.5586 22.3809C58.2201 22.0944 57.8522 21.8535 57.4551 21.6582C57.0645 21.4629 56.6348 21.3164 56.166 21.2188C55.7038 21.1146 55.1992 21.0625 54.6523 21.0625C53.8451 21.0625 53.1289 21.1895 52.5039 21.4434C51.8789 21.6973 51.3516 22.0456 50.9219 22.4883C50.4922 22.9245 50.1667 23.4388 49.9453 24.0312C49.724 24.6237 49.6133 25.2552 49.6133 25.9258C49.6133 26.6224 49.724 27.2637 49.9453 27.8496C50.1667 28.4355 50.4954 28.9434 50.9316 29.373C51.3678 29.7962 51.9082 30.1283 52.5527 30.3691C53.1973 30.61 53.946 30.7305 54.7988 30.7305C55.5605 30.7305 56.2441 30.6426 56.8496 30.4668C57.4551 30.2845 57.9727 30.0339 58.4023 29.7148C58.8385 29.3893 59.1803 29.002 59.4277 28.5527C59.6816 28.1035 59.8379 27.6055 59.8965 27.0586H55.7949V25.8379H62.1328V32H59.9062V30.4473C59.6263 30.7207 59.3105 30.9714 58.959 31.1992C58.6139 31.4206 58.2266 31.6126 57.7969 31.7754C57.3737 31.9382 56.9049 32.0651 56.3906 32.1562C55.8763 32.2474 55.3164 32.293 54.7109 32.293C53.4935 32.293 52.4095 32.1302 51.459 31.8047C50.5085 31.4727 49.7077 31.0202 49.0566 30.4473C48.4056 29.8743 47.9076 29.2005 47.5625 28.4258C47.224 27.651 47.0547 26.8145 47.0547 25.916ZM60.1211 24.041H62.543V20.3398H62.9336V24.4121H60.1211V24.041ZM50.3164 25.916C50.3164 25.3236 50.4141 24.7734 50.6094 24.2656C50.8112 23.7578 51.0977 23.3184 51.4688 22.9473C51.8398 22.5697 52.2923 22.2767 52.8262 22.0684C53.3665 21.8535 53.9753 21.7461 54.6523 21.7461C55.1211 21.7461 55.5443 21.7819 55.9219 21.8535C56.306 21.9186 56.6478 22.0163 56.9473 22.1465C57.2533 22.2767 57.5267 22.4395 57.7676 22.6348C58.0085 22.8236 58.2266 23.0417 58.4219 23.2891C58.1224 23.0742 57.8294 22.8952 57.543 22.752C57.2565 22.6022 56.9635 22.4818 56.6641 22.3906C56.3646 22.293 56.0488 22.2246 55.7168 22.1855C55.3913 22.14 55.0365 22.1172 54.6523 22.1172C54.0339 22.1172 53.4805 22.2181 52.9922 22.4199C52.5039 22.6152 52.0905 22.8854 51.752 23.2305C51.4134 23.569 51.153 23.9694 50.9707 24.4316C50.7949 24.8939 50.707 25.3887 50.707 25.916C50.707 26.3717 50.7721 26.8014 50.9023 27.2051C51.0326 27.6087 51.2376 27.9831 51.5176 28.3281C51.7975 28.6732 52.1556 28.9889 52.5918 29.2754C53.028 29.5553 53.5521 29.8027 54.1641 30.0176C53.5586 29.9199 53.0182 29.7572 52.543 29.5293C52.0677 29.3014 51.6641 29.015 51.332 28.6699C51.0065 28.3184 50.7559 27.9147 50.5801 27.459C50.4043 26.9967 50.3164 26.4824 50.3164 25.916ZM62.8359 32.6836V26.3262H63.2266V33.0547H60.4922V32.6836H62.8359ZM56.3418 27.7422H59.3496C59.3366 27.7812 59.3171 27.8398 59.291 27.918C59.2715 27.9896 59.2487 28.0547 59.2227 28.1133H56.3418V27.7422ZM49.5547 31.5312C49.9258 31.7852 50.2969 32.0033 50.668 32.1855C51.0456 32.3678 51.4395 32.5176 51.8496 32.6348C52.2663 32.752 52.709 32.8366 53.1777 32.8887C53.653 32.9473 54.1706 32.9766 54.7305 32.9766C55.2122 32.9766 55.6615 32.9538 56.0781 32.9082C56.5013 32.8626 56.8984 32.791 57.2695 32.6934C57.6471 32.5957 58.002 32.472 58.334 32.3223C58.6725 32.1725 59.0013 31.9935 59.3203 31.7852V32.2344C58.6497 32.6445 57.9368 32.931 57.1816 33.0938C56.4329 33.263 55.6094 33.3477 54.7109 33.3477C53.513 33.3477 52.4909 33.1979 51.6445 32.8984C50.8047 32.6055 50.1081 32.1497 49.5547 31.5312ZM65.9609 30.5352H68.1094V19.8418H65.9609V18.377H70.209V30.5352H72.3574V32H65.9609V30.5352ZM70.8926 18.875H71.2832V29.9492H70.8926V18.875ZM66.5469 20.5254H67.6992V20.8965H66.5469V20.5254ZM73.0605 32.6836V31.082H73.4512V33.0547H66.5469V32.6836H73.0605ZM75.2676 27.3223C75.2676 26.7168 75.3945 26.1146 75.6484 25.5156C75.9023 24.9167 76.2767 24.3796 76.7715 23.9043C77.2728 23.4225 77.8913 23.0319 78.627 22.7324C79.3626 22.4329 80.209 22.2832 81.166 22.2832C81.472 22.2832 81.7975 22.306 82.1426 22.3516C82.4941 22.3971 82.8424 22.472 83.1875 22.5762C83.5391 22.6803 83.8809 22.8203 84.2129 22.9961C84.5449 23.1654 84.8477 23.3737 85.1211 23.6211V22.5762H89.3203V24.2363H87.1719V30.5352H89.3203V32H85.1211V30.7305C84.8672 30.9844 84.5775 31.209 84.252 31.4043C83.9329 31.5996 83.5911 31.7624 83.2266 31.8926C82.8685 32.0228 82.4941 32.1204 82.1035 32.1855C81.7194 32.2572 81.3353 32.293 80.9512 32.293C80.0137 32.293 79.1901 32.1595 78.4805 31.8926C77.7708 31.6257 77.1784 31.2676 76.7031 30.8184C76.2279 30.3626 75.8698 29.8353 75.6289 29.2363C75.388 28.6309 75.2676 27.9928 75.2676 27.3223ZM87.875 24.9199H90.0234V23.3184H90.4141V25.291H88.2656V29.9492H87.875V24.9199ZM77.3867 27.2441C77.3867 27.7845 77.4811 28.2728 77.6699 28.709C77.8652 29.1452 78.1289 29.5163 78.4609 29.8223C78.793 30.1283 79.1868 30.3659 79.6426 30.5352C80.0983 30.7044 80.5898 30.7891 81.1172 30.7891C81.4232 30.7891 81.7324 30.7598 82.0449 30.7012C82.3639 30.6361 82.6699 30.5417 82.9629 30.418C83.2624 30.2878 83.5423 30.1283 83.8027 29.9395C84.0697 29.7441 84.2975 29.5163 84.4863 29.2559C84.6816 28.9889 84.8346 28.6862 84.9453 28.3477C85.0625 28.0091 85.1211 27.6315 85.1211 27.2148C85.1211 26.7526 85.0137 26.3164 84.7988 25.9062C84.584 25.4896 84.2943 25.125 83.9297 24.8125C83.5716 24.5 83.1517 24.2526 82.6699 24.0703C82.1882 23.888 81.6803 23.7969 81.1465 23.7969C80.6126 23.7969 80.1146 23.8783 79.6523 24.041C79.1966 24.2038 78.7995 24.4349 78.4609 24.7344C78.1289 25.0339 77.8652 25.3984 77.6699 25.8281C77.4811 26.2513 77.3867 26.7233 77.3867 27.2441ZM78.0605 27.293C78.0605 26.8828 78.1354 26.5085 78.2852 26.1699C78.4414 25.8249 78.6562 25.5286 78.9297 25.2812C79.2031 25.0273 79.5286 24.832 79.9062 24.6953C80.2839 24.5521 80.6973 24.4805 81.1465 24.4805C81.485 24.4805 81.791 24.5195 82.0645 24.5977C82.3379 24.6693 82.5755 24.7604 82.7773 24.8711C82.9792 24.9753 83.1452 25.0859 83.2754 25.2031C83.4056 25.3138 83.4967 25.4115 83.5488 25.4961C83.1973 25.3008 82.8359 25.1445 82.4648 25.0273C82.0938 24.9102 81.6543 24.8516 81.1465 24.8516C80.7363 24.8516 80.3652 24.9199 80.0332 25.0566C79.7077 25.1868 79.4277 25.3659 79.1934 25.5938C78.959 25.8216 78.7767 26.0853 78.6465 26.3848C78.5228 26.6842 78.4609 27 78.4609 27.332C78.4609 27.6445 78.4967 27.9375 78.5684 28.2109C78.64 28.4844 78.7539 28.7383 78.9102 28.9727C79.0729 29.2005 79.2812 29.4121 79.5352 29.6074C79.7956 29.7962 80.1081 29.9622 80.4727 30.1055C80.0625 30.0339 79.7044 29.9134 79.3984 29.7441C79.099 29.5684 78.8483 29.3568 78.6465 29.1094C78.4512 28.862 78.3047 28.5853 78.207 28.2793C78.1094 27.9668 78.0605 27.638 78.0605 27.293ZM90.0234 32.6836V31.082H90.4141V33.0547H85.707V32.6836H90.0234ZM76.5273 31.5801C76.7943 31.7949 77.097 31.987 77.4355 32.1562C77.7741 32.332 78.1354 32.4785 78.5195 32.5957C78.9036 32.7194 79.3008 32.8138 79.7109 32.8789C80.1276 32.944 80.5443 32.9766 80.9609 32.9766C81.6836 32.9766 82.3574 32.8854 82.9824 32.7031C83.6139 32.5273 84.1738 32.2799 84.6621 31.9609V32.4102C84.1738 32.7031 83.6074 32.931 82.9629 33.0938C82.3249 33.263 81.6608 33.3477 80.9707 33.3477C80.4954 33.3477 80.0299 33.3086 79.5742 33.2305C79.1185 33.1589 78.6953 33.0482 78.3047 32.8984C77.9141 32.7487 77.5658 32.5632 77.2598 32.3418C76.9538 32.1204 76.7096 31.8665 76.5273 31.5801ZM93.1777 30.5352H95.3262V24.2363H93.1777V22.5762H97.4258V24.041C97.6211 23.7936 97.8555 23.5625 98.1289 23.3477C98.4023 23.1328 98.7083 22.9473 99.0469 22.791C99.3919 22.6348 99.763 22.5111 100.16 22.4199C100.564 22.3288 100.99 22.2832 101.439 22.2832C102.357 22.2832 103.142 22.4622 103.793 22.8203C104.451 23.1784 104.958 23.7318 105.316 24.4805C105.557 24.1615 105.837 23.8685 106.156 23.6016C106.482 23.3281 106.837 23.0938 107.221 22.8984C107.605 22.7031 108.015 22.5534 108.451 22.4492C108.894 22.3385 109.356 22.2832 109.838 22.2832C110.508 22.2832 111.114 22.3809 111.654 22.5762C112.195 22.7715 112.654 23.071 113.031 23.4746C113.415 23.8717 113.708 24.3763 113.91 24.9883C114.118 25.5938 114.223 26.3099 114.223 27.1367V30.5352H116.371V32H110.463V30.5352H112.123V28.0156C112.123 27.4036 112.097 26.8698 112.045 26.4141C111.993 25.9583 111.905 25.6068 111.781 25.3594C111.534 24.8451 111.199 24.4805 110.775 24.2656C110.359 24.0508 109.867 23.9434 109.301 23.9434C108.975 23.9434 108.643 24.0052 108.305 24.1289C107.966 24.2461 107.641 24.4121 107.328 24.627C107.016 24.8418 106.726 25.0957 106.459 25.3887C106.192 25.6816 105.967 25.9974 105.785 26.3359C105.798 26.4661 105.808 26.5996 105.814 26.7363C105.821 26.8665 105.824 27 105.824 27.1367V30.5352H107.484V32H102.064V30.5352H103.725V27.9668C103.725 27.4395 103.699 26.9707 103.646 26.5605C103.601 26.1439 103.533 25.8184 103.441 25.584C103.214 24.9915 102.882 24.5716 102.445 24.3242C102.009 24.0703 101.495 23.9434 100.902 23.9434C100.577 23.9434 100.248 24.002 99.916 24.1191C99.584 24.2363 99.2617 24.3991 98.9492 24.6074C98.6432 24.8158 98.3568 25.0632 98.0898 25.3496C97.8294 25.6361 97.6081 25.9453 97.4258 26.2773V30.5352H99.0859V32H93.1777V30.5352ZM112.855 22.5762C113.298 22.6868 113.676 22.8757 113.988 23.1426C114.301 23.403 114.555 23.735 114.75 24.1387C114.945 24.5423 115.089 25.0078 115.18 25.5352C115.271 26.0625 115.316 26.6419 115.316 27.2734V29.9492H114.926V27.2051C114.926 26.6322 114.88 26.1016 114.789 25.6133C114.704 25.1185 114.574 24.6758 114.398 24.2852C114.223 23.888 114.005 23.5462 113.744 23.2598C113.49 22.9733 113.194 22.7454 112.855 22.5762ZM104.457 22.5762C104.77 22.6152 105.043 22.7031 105.277 22.8398C105.518 22.9766 105.704 23.1263 105.834 23.2891L105.551 23.5527C105.512 23.4746 105.45 23.3867 105.365 23.2891C105.287 23.1914 105.196 23.097 105.092 23.0059C104.994 22.9082 104.887 22.8236 104.77 22.752C104.659 22.6738 104.555 22.6152 104.457 22.5762ZM106.527 26.5312C106.69 26.2448 106.879 25.9844 107.094 25.75C107.309 25.5156 107.54 25.3171 107.787 25.1543C108.035 24.985 108.295 24.8548 108.568 24.7637C108.842 24.6725 109.122 24.627 109.408 24.627C109.857 24.627 110.225 24.7116 110.512 24.8809C110.805 25.0501 111.016 25.265 111.146 25.5254C110.945 25.3757 110.704 25.252 110.424 25.1543C110.144 25.0501 109.799 24.998 109.389 24.998C109.135 24.998 108.881 25.0436 108.627 25.1348C108.38 25.2194 108.145 25.3366 107.924 25.4863C107.709 25.6361 107.514 25.8086 107.338 26.0039C107.162 26.1992 107.022 26.401 106.918 26.6094V29.9492H106.527V26.5312ZM98.1289 26.5312C98.2917 26.2448 98.4805 25.9844 98.6953 25.75C98.9102 25.5156 99.1413 25.3171 99.3887 25.1543C99.6361 24.985 99.8965 24.8548 100.17 24.7637C100.443 24.6725 100.723 24.627 101.01 24.627C101.459 24.627 101.827 24.7116 102.113 24.8809C102.406 25.0501 102.618 25.265 102.748 25.5254C102.546 25.3757 102.305 25.252 102.025 25.1543C101.745 25.0501 101.4 24.998 100.99 24.998C100.736 24.998 100.482 25.0436 100.229 25.1348C99.9811 25.2194 99.7467 25.3366 99.5254 25.4863C99.3105 25.6361 99.1152 25.8086 98.9395 26.0039C98.7637 26.1992 98.6237 26.401 98.5195 26.6094V29.9492H98.1289V26.5312ZM93.7637 24.9199H94.916V25.291H93.7637V24.9199ZM117.074 32.6836V31.082H117.465V33.0547H111.049V32.6836H117.074ZM108.188 32.6836V31.082H108.578V33.0547H102.65V32.6836H108.188ZM99.7891 32.6836V31.082H100.18V33.0547H93.7637V32.6836H99.7891ZM118.959 27.4395C118.959 26.7298 119.112 26.0625 119.418 25.4375C119.724 24.806 120.15 24.2591 120.697 23.7969C121.251 23.3281 121.911 22.9603 122.68 22.6934C123.448 22.4199 124.291 22.2832 125.209 22.2832C126.173 22.2832 127.032 22.4134 127.787 22.6738C128.549 22.9277 129.19 23.2826 129.711 23.7383C130.238 24.194 130.639 24.7344 130.912 25.3594C131.192 25.9844 131.332 26.6647 131.332 27.4004C131.332 28.11 131.179 28.7643 130.873 29.3633C130.574 29.9622 130.144 30.4798 129.584 30.916C129.031 31.3457 128.363 31.6842 127.582 31.9316C126.807 32.1725 125.941 32.293 124.984 32.293C124.079 32.293 123.256 32.1595 122.514 31.8926C121.778 31.6191 121.146 31.2578 120.619 30.8086C120.092 30.3594 119.682 29.8451 119.389 29.2656C119.102 28.6797 118.959 28.071 118.959 27.4395ZM120.492 31.5508C121.124 32.0065 121.82 32.3581 122.582 32.6055C123.35 32.8529 124.216 32.9766 125.18 32.9766C126.078 32.9766 126.941 32.8529 127.768 32.6055C128.594 32.3646 129.324 32.0065 129.955 31.5312C130.587 31.056 131.091 30.4733 131.469 29.7832C131.846 29.0866 132.035 28.2923 132.035 27.4004C132.035 26.9642 131.973 26.5247 131.85 26.082C131.732 25.6328 131.563 25.2031 131.342 24.793C131.127 24.3828 130.863 24.002 130.551 23.6504C130.238 23.2923 129.89 22.9896 129.506 22.7422C129.942 22.9375 130.339 23.1947 130.697 23.5137C131.062 23.8327 131.371 24.1973 131.625 24.6074C131.879 25.0111 132.074 25.4505 132.211 25.9258C132.354 26.401 132.426 26.8926 132.426 27.4004C132.426 28.0384 132.335 28.6309 132.152 29.1777C131.97 29.7181 131.716 30.2096 131.391 30.6523C131.072 31.0885 130.688 31.4759 130.238 31.8145C129.796 32.153 129.307 32.4329 128.773 32.6543C128.24 32.8822 127.67 33.0547 127.064 33.1719C126.465 33.2891 125.854 33.3477 125.229 33.3477C124.708 33.3477 124.21 33.3053 123.734 33.2207C123.259 33.1426 122.816 33.0254 122.406 32.8691C122.003 32.7194 121.638 32.5339 121.312 32.3125C120.987 32.0911 120.714 31.8372 120.492 31.5508ZM121.127 27.4004C121.127 27.9017 121.221 28.3607 121.41 28.7773C121.605 29.1875 121.879 29.5423 122.23 29.8418C122.582 30.1348 123.002 30.3626 123.49 30.5254C123.985 30.6882 124.532 30.7695 125.131 30.7695C125.736 30.7695 126.286 30.6882 126.781 30.5254C127.276 30.3561 127.702 30.125 128.061 29.832C128.419 29.5326 128.695 29.1777 128.891 28.7676C129.086 28.3509 129.184 27.8952 129.184 27.4004C129.184 26.9121 129.086 26.4531 128.891 26.0234C128.695 25.5872 128.422 25.2064 128.07 24.8809C127.719 24.5488 127.296 24.2884 126.801 24.0996C126.312 23.9043 125.772 23.8066 125.18 23.8066C124.561 23.8066 124.001 23.901 123.5 24.0898C123.005 24.2721 122.582 24.526 122.23 24.8516C121.879 25.1706 121.605 25.5482 121.41 25.9844C121.221 26.4206 121.127 26.8926 121.127 27.4004ZM121.811 27.4395C121.811 27.0293 121.892 26.6452 122.055 26.2871C122.217 25.9225 122.445 25.61 122.738 25.3496C123.038 25.0827 123.393 24.8743 123.803 24.7246C124.219 24.5684 124.678 24.4902 125.18 24.4902C125.499 24.4902 125.808 24.526 126.107 24.5977C126.407 24.6628 126.684 24.7604 126.938 24.8906C127.191 25.0208 127.416 25.1803 127.611 25.3691C127.807 25.5514 127.963 25.7598 128.08 25.9941C127.65 25.6035 127.201 25.3171 126.732 25.1348C126.27 24.9525 125.746 24.8613 125.16 24.8613C124.737 24.8613 124.346 24.9297 123.988 25.0664C123.63 25.2031 123.318 25.3887 123.051 25.623C122.784 25.8574 122.576 26.1309 122.426 26.4434C122.276 26.7559 122.201 27.0879 122.201 27.4395C122.201 27.7324 122.237 28.0059 122.309 28.2598C122.38 28.5137 122.501 28.7513 122.67 28.9727C122.846 29.1875 123.077 29.3828 123.363 29.5586C123.65 29.7344 124.008 29.8906 124.438 30.0273C124.047 30.0013 123.689 29.9199 123.363 29.7832C123.044 29.64 122.768 29.4544 122.533 29.2266C122.305 28.9987 122.126 28.7318 121.996 28.4258C121.872 28.1198 121.811 27.791 121.811 27.4395ZM135.99 29.8125C135.86 29.4805 135.762 29.1191 135.697 28.7285C135.639 28.3379 135.609 27.9082 135.609 27.4395V24.2363H133.949V22.5762H137.709V26.6094C137.709 27.1367 137.732 27.6087 137.777 28.0254C137.829 28.4355 137.901 28.7578 137.992 28.9922C138.109 29.2917 138.262 29.5456 138.451 29.7539C138.64 29.9622 138.852 30.1315 139.086 30.2617C139.327 30.3919 139.584 30.4863 139.857 30.5449C140.137 30.6035 140.427 30.6328 140.727 30.6328C141.046 30.6328 141.374 30.5742 141.713 30.457C142.058 30.3398 142.39 30.1771 142.709 29.9688C143.028 29.7604 143.324 29.513 143.598 29.2266C143.878 28.9401 144.112 28.6309 144.301 28.2988V24.2363H142.152V22.5762H146.4V30.5352H148.061V32H144.301V30.5156C144.092 30.7695 143.839 31.0039 143.539 31.2188C143.246 31.4336 142.917 31.6224 142.553 31.7852C142.195 31.9414 141.807 32.0651 141.391 32.1562C140.974 32.2474 140.541 32.293 140.092 32.293C139.122 32.293 138.279 32.0911 137.562 31.6875C136.853 31.2773 136.329 30.6523 135.99 29.8125ZM147.084 23.0742H147.475V29.9492H147.084V23.0742ZM138.412 23.0742H138.803V27.0879C138.803 27.5957 138.852 28.0189 138.949 28.3574C139.047 28.696 139.177 28.9727 139.34 29.1875C139.503 29.4023 139.688 29.5684 139.896 29.6855C140.105 29.8027 140.32 29.8939 140.541 29.959C139.857 29.9525 139.33 29.7279 138.959 29.2852C138.594 28.8359 138.412 28.1393 138.412 27.1953V23.0742ZM142.738 24.9199H143.891V25.291H142.738V24.9199ZM134.535 24.9199H135.199V25.291H134.535V24.9199ZM148.764 32.6836V31.082H149.154V33.0547H144.887V32.6836H148.764ZM136.098 31.3457C136.605 31.8926 137.178 32.2995 137.816 32.5664C138.454 32.8398 139.216 32.9766 140.102 32.9766C140.889 32.9766 141.592 32.8724 142.211 32.6641C142.836 32.4622 143.402 32.1855 143.91 31.834V32.2832C143.337 32.6543 142.742 32.9245 142.123 33.0938C141.505 33.263 140.834 33.3477 140.111 33.3477C139.128 33.3477 138.292 33.1751 137.602 32.8301C136.911 32.4915 136.41 31.9967 136.098 31.3457ZM151.557 30.5352H153.705V24.2363H151.557V22.5762H155.805V24.207C156.007 23.9466 156.247 23.6992 156.527 23.4648C156.814 23.2305 157.136 23.0254 157.494 22.8496C157.852 22.6738 158.243 22.5371 158.666 22.4395C159.089 22.3353 159.542 22.2832 160.023 22.2832C160.167 22.2832 160.346 22.2897 160.561 22.3027C160.775 22.3092 160.98 22.3288 161.176 22.3613V24.2754C160.948 24.2233 160.723 24.1875 160.502 24.168C160.281 24.1484 160.066 24.1387 159.857 24.1387C159.337 24.1387 158.842 24.2233 158.373 24.3926C157.911 24.5553 157.497 24.7962 157.133 25.1152C156.768 25.4277 156.469 25.8118 156.234 26.2676C156 26.7233 155.857 27.2441 155.805 27.8301V30.5352H159.32V32H151.557V30.5352ZM156.488 28.709C156.488 28.097 156.566 27.5501 156.723 27.0684C156.879 26.5866 157.1 26.1797 157.387 25.8477C157.68 25.5156 158.035 25.2617 158.451 25.0859C158.868 24.9102 159.337 24.8223 159.857 24.8223C159.968 24.8223 160.108 24.832 160.277 24.8516C160.447 24.8646 160.622 24.8874 160.805 24.9199C160.993 24.9525 161.182 24.9948 161.371 25.0469C161.56 25.0924 161.729 25.1478 161.879 25.2129V22.9082H162.27V25.7012C162.087 25.623 161.889 25.5547 161.674 25.4961C161.465 25.431 161.251 25.3757 161.029 25.3301C160.814 25.2845 160.606 25.252 160.404 25.2324C160.202 25.2064 160.02 25.1934 159.857 25.1934C159.382 25.1934 158.959 25.2715 158.588 25.4277C158.223 25.584 157.914 25.8086 157.66 26.1016C157.406 26.3945 157.211 26.7526 157.074 27.1758C156.944 27.599 156.879 28.0775 156.879 28.6113V29.9492H156.488V28.709ZM152.143 24.9199H153.295V25.291H152.143V24.9199ZM160.023 32.6836V31.082H160.414V33.0547H152.143V32.6836H160.023ZM170.863 28.8945C170.863 28.6016 170.932 28.3086 171.068 28.0156C171.212 27.7161 171.4 27.4297 171.635 27.1562C171.876 26.8828 172.156 26.6322 172.475 26.4043C172.8 26.1699 173.148 25.9746 173.52 25.8184C173.161 25.6816 172.836 25.5254 172.543 25.3496C172.25 25.1673 171.996 24.9655 171.781 24.7441C171.573 24.5163 171.41 24.2689 171.293 24.002C171.182 23.735 171.127 23.4453 171.127 23.1328C171.127 22.6641 171.247 22.2116 171.488 21.7754C171.736 21.3392 172.097 20.9518 172.572 20.6133C173.048 20.2747 173.637 20.0046 174.34 19.8027C175.043 19.6009 175.854 19.5 176.771 19.5C177.455 19.5 178.074 19.5391 178.627 19.6172C179.187 19.6888 179.698 19.793 180.16 19.9297C180.622 20.0599 181.046 20.2194 181.43 20.4082C181.814 20.5905 182.172 20.7956 182.504 21.0234V19.8418H184.701V23.2598H182.504C182.23 22.9017 181.885 22.5859 181.469 22.3125C181.059 22.0391 180.606 21.8112 180.111 21.6289C179.623 21.4401 179.105 21.3001 178.559 21.209C178.012 21.1113 177.471 21.0625 176.938 21.0625C176.371 21.0625 175.886 21.1243 175.482 21.248C175.085 21.3652 174.757 21.5215 174.496 21.7168C174.242 21.9056 174.057 22.1139 173.939 22.3418C173.822 22.5697 173.764 22.791 173.764 23.0059C173.764 23.3184 173.852 23.5951 174.027 23.8359C174.21 24.0768 174.467 24.2819 174.799 24.4512C175.131 24.6139 175.535 24.7376 176.01 24.8223C176.485 24.9069 177.019 24.9492 177.611 24.9492V26.6484C176.941 26.6484 176.358 26.707 175.863 26.8242C175.368 26.9349 174.958 27.0879 174.633 27.2832C174.307 27.4785 174.063 27.7064 173.9 27.9668C173.744 28.2272 173.666 28.5039 173.666 28.7969C173.666 29.0898 173.741 29.3568 173.891 29.5977C174.047 29.832 174.268 30.0339 174.555 30.2031C174.841 30.3724 175.186 30.5026 175.59 30.5938C176 30.6849 176.459 30.7305 176.967 30.7305C177.663 30.7305 178.318 30.6491 178.93 30.4863C179.542 30.3171 180.085 30.0794 180.561 29.7734C181.042 29.4609 181.443 29.0833 181.762 28.6406C182.081 28.1979 182.299 27.6966 182.416 27.1367H180.639V25.4375H187.084V27.1367H184.701V32H182.504V30.1445C181.814 30.8737 180.984 31.4141 180.014 31.7656C179.044 32.1172 177.95 32.293 176.732 32.293C175.743 32.293 174.88 32.2083 174.145 32.0391C173.415 31.8763 172.807 31.6452 172.318 31.3457C171.83 31.0462 171.465 30.6882 171.225 30.2715C170.984 29.8548 170.863 29.3958 170.863 28.8945ZM183.09 23.9434H185.404V20.3398H185.814V24.3145H183.09V23.9434ZM174.574 22.7324C174.574 22.5957 174.643 22.4688 174.779 22.3516C174.916 22.2344 175.098 22.1302 175.326 22.0391C175.561 21.9479 175.831 21.8763 176.137 21.8242C176.449 21.7721 176.781 21.7461 177.133 21.7461C177.94 21.7461 178.663 21.8405 179.301 22.0293C179.945 22.2116 180.482 22.4492 180.912 22.7422C180.417 22.5859 179.841 22.4427 179.184 22.3125C178.526 22.1823 177.842 22.1172 177.133 22.1172C176.501 22.1172 175.974 22.1725 175.551 22.2832C175.134 22.3939 174.809 22.5436 174.574 22.7324ZM174.379 28.582C174.379 28.4648 174.444 28.3346 174.574 28.1914C174.711 28.0482 174.913 27.9147 175.18 27.791C175.447 27.6608 175.782 27.5534 176.186 27.4688C176.596 27.3776 177.071 27.332 177.611 27.332H178.314V25.4473H178.725V27.7031H177.611C177.234 27.7031 176.876 27.7292 176.537 27.7812C176.205 27.8333 175.899 27.9017 175.619 27.9863C175.339 28.071 175.092 28.1654 174.877 28.2695C174.669 28.3737 174.503 28.4779 174.379 28.582ZM185.404 32.6836V27.8203H187.787V25.9355H188.197V28.1914H185.814V33.0547H183.09V32.6836H185.404ZM181.127 27.8203H181.811C181.811 27.8398 181.801 27.8691 181.781 27.9082C181.768 27.9473 181.752 27.9863 181.732 28.0254C181.713 28.0645 181.693 28.1003 181.674 28.1328C181.654 28.1654 181.641 28.1849 181.635 28.1914H181.127V27.8203ZM171.508 31.5312C172.25 32.0391 173.038 32.4069 173.871 32.6348C174.711 32.8626 175.645 32.9766 176.674 32.9766C177.637 32.9766 178.507 32.8789 179.281 32.6836C180.056 32.4948 180.792 32.1953 181.488 31.7852V32.2344C180.759 32.6445 179.997 32.931 179.203 33.0938C178.409 33.263 177.559 33.3477 176.654 33.3477C176.107 33.3477 175.583 33.3118 175.082 33.2402C174.581 33.1686 174.109 33.0579 173.666 32.9082C173.23 32.7585 172.829 32.5697 172.465 32.3418C172.1 32.1139 171.781 31.8438 171.508 31.5312ZM196 25.916C196 25.3757 196.075 24.8451 196.225 24.3242C196.374 23.7969 196.596 23.2956 196.889 22.8203C197.182 22.3451 197.543 21.9056 197.973 21.502C198.409 21.0918 198.91 20.7402 199.477 20.4473C200.043 20.1478 200.671 19.9167 201.361 19.7539C202.058 19.5846 202.813 19.5 203.627 19.5C204.708 19.5 205.639 19.64 206.42 19.9199C207.201 20.1999 207.888 20.584 208.48 21.0723V19.8418H210.785V23.3574H208.48C208.174 22.9863 207.849 22.6608 207.504 22.3809C207.165 22.0944 206.798 21.8535 206.4 21.6582C206.01 21.4629 205.58 21.3164 205.111 21.2188C204.649 21.1146 204.145 21.0625 203.598 21.0625C202.79 21.0625 202.074 21.1895 201.449 21.4434C200.824 21.6973 200.297 22.0456 199.867 22.4883C199.438 22.9245 199.112 23.4388 198.891 24.0312C198.669 24.6237 198.559 25.2552 198.559 25.9258C198.559 26.6224 198.669 27.2637 198.891 27.8496C199.112 28.4355 199.441 28.9434 199.877 29.373C200.313 29.7962 200.854 30.1283 201.498 30.3691C202.143 30.61 202.891 30.7305 203.744 30.7305C204.506 30.7305 205.189 30.6426 205.795 30.4668C206.4 30.2845 206.918 30.0339 207.348 29.7148C207.784 29.3893 208.126 29.002 208.373 28.5527C208.627 28.1035 208.783 27.6055 208.842 27.0586H204.74V25.8379H211.078V32H208.852V30.4473C208.572 30.7207 208.256 30.9714 207.904 31.1992C207.559 31.4206 207.172 31.6126 206.742 31.7754C206.319 31.9382 205.85 32.0651 205.336 32.1562C204.822 32.2474 204.262 32.293 203.656 32.293C202.439 32.293 201.355 32.1302 200.404 31.8047C199.454 31.4727 198.653 31.0202 198.002 30.4473C197.351 29.8743 196.853 29.2005 196.508 28.4258C196.169 27.651 196 26.8145 196 25.916ZM209.066 24.041H211.488V20.3398H211.879V24.4121H209.066V24.041ZM199.262 25.916C199.262 25.3236 199.359 24.7734 199.555 24.2656C199.757 23.7578 200.043 23.3184 200.414 22.9473C200.785 22.5697 201.238 22.2767 201.771 22.0684C202.312 21.8535 202.921 21.7461 203.598 21.7461C204.066 21.7461 204.49 21.7819 204.867 21.8535C205.251 21.9186 205.593 22.0163 205.893 22.1465C206.199 22.2767 206.472 22.4395 206.713 22.6348C206.954 22.8236 207.172 23.0417 207.367 23.2891C207.068 23.0742 206.775 22.8952 206.488 22.752C206.202 22.6022 205.909 22.4818 205.609 22.3906C205.31 22.293 204.994 22.2246 204.662 22.1855C204.337 22.14 203.982 22.1172 203.598 22.1172C202.979 22.1172 202.426 22.2181 201.938 22.4199C201.449 22.6152 201.036 22.8854 200.697 23.2305C200.359 23.569 200.098 23.9694 199.916 24.4316C199.74 24.8939 199.652 25.3887 199.652 25.916C199.652 26.3717 199.717 26.8014 199.848 27.2051C199.978 27.6087 200.183 27.9831 200.463 28.3281C200.743 28.6732 201.101 28.9889 201.537 29.2754C201.973 29.5553 202.497 29.8027 203.109 30.0176C202.504 29.9199 201.964 29.7572 201.488 29.5293C201.013 29.3014 200.609 29.015 200.277 28.6699C199.952 28.3184 199.701 27.9147 199.525 27.459C199.35 26.9967 199.262 26.4824 199.262 25.916ZM211.781 32.6836V26.3262H212.172V33.0547H209.438V32.6836H211.781ZM205.287 27.7422H208.295C208.282 27.7812 208.262 27.8398 208.236 27.918C208.217 27.9896 208.194 28.0547 208.168 28.1133H205.287V27.7422ZM198.5 31.5312C198.871 31.7852 199.242 32.0033 199.613 32.1855C199.991 32.3678 200.385 32.5176 200.795 32.6348C201.212 32.752 201.654 32.8366 202.123 32.8887C202.598 32.9473 203.116 32.9766 203.676 32.9766C204.158 32.9766 204.607 32.9538 205.023 32.9082C205.447 32.8626 205.844 32.791 206.215 32.6934C206.592 32.5957 206.947 32.472 207.279 32.3223C207.618 32.1725 207.947 31.9935 208.266 31.7852V32.2344C207.595 32.6445 206.882 32.931 206.127 33.0938C205.378 33.263 204.555 33.3477 203.656 33.3477C202.458 33.3477 201.436 33.1979 200.59 32.8984C199.75 32.6055 199.053 32.1497 198.5 31.5312ZM215.15 30.5352H217.299V24.2363H215.15V22.5762H219.398V24.207C219.6 23.9466 219.841 23.6992 220.121 23.4648C220.408 23.2305 220.73 23.0254 221.088 22.8496C221.446 22.6738 221.837 22.5371 222.26 22.4395C222.683 22.3353 223.135 22.2832 223.617 22.2832C223.76 22.2832 223.939 22.2897 224.154 22.3027C224.369 22.3092 224.574 22.3288 224.77 22.3613V24.2754C224.542 24.2233 224.317 24.1875 224.096 24.168C223.874 24.1484 223.66 24.1387 223.451 24.1387C222.93 24.1387 222.436 24.2233 221.967 24.3926C221.505 24.5553 221.091 24.7962 220.727 25.1152C220.362 25.4277 220.062 25.8118 219.828 26.2676C219.594 26.7233 219.451 27.2441 219.398 27.8301V30.5352H222.914V32H215.15V30.5352ZM220.082 28.709C220.082 28.097 220.16 27.5501 220.316 27.0684C220.473 26.5866 220.694 26.1797 220.98 25.8477C221.273 25.5156 221.628 25.2617 222.045 25.0859C222.462 24.9102 222.93 24.8223 223.451 24.8223C223.562 24.8223 223.702 24.832 223.871 24.8516C224.04 24.8646 224.216 24.8874 224.398 24.9199C224.587 24.9525 224.776 24.9948 224.965 25.0469C225.154 25.0924 225.323 25.1478 225.473 25.2129V22.9082H225.863V25.7012C225.681 25.623 225.482 25.5547 225.268 25.4961C225.059 25.431 224.844 25.3757 224.623 25.3301C224.408 25.2845 224.2 25.252 223.998 25.2324C223.796 25.2064 223.614 25.1934 223.451 25.1934C222.976 25.1934 222.553 25.2715 222.182 25.4277C221.817 25.584 221.508 25.8086 221.254 26.1016C221 26.3945 220.805 26.7526 220.668 27.1758C220.538 27.599 220.473 28.0775 220.473 28.6113V29.9492H220.082V28.709ZM215.736 24.9199H216.889V25.291H215.736V24.9199ZM223.617 32.6836V31.082H224.008V33.0547H215.736V32.6836H223.617ZM227.67 27.3223C227.67 26.7168 227.797 26.1146 228.051 25.5156C228.305 24.9167 228.679 24.3796 229.174 23.9043C229.675 23.4225 230.294 23.0319 231.029 22.7324C231.765 22.4329 232.611 22.2832 233.568 22.2832C233.874 22.2832 234.2 22.306 234.545 22.3516C234.896 22.3971 235.245 22.472 235.59 22.5762C235.941 22.6803 236.283 22.8203 236.615 22.9961C236.947 23.1654 237.25 23.3737 237.523 23.6211V22.5762H241.723V24.2363H239.574V30.5352H241.723V32H237.523V30.7305C237.27 30.9844 236.98 31.209 236.654 31.4043C236.335 31.5996 235.993 31.7624 235.629 31.8926C235.271 32.0228 234.896 32.1204 234.506 32.1855C234.122 32.2572 233.738 32.293 233.354 32.293C232.416 32.293 231.592 32.1595 230.883 31.8926C230.173 31.6257 229.581 31.2676 229.105 30.8184C228.63 30.3626 228.272 29.8353 228.031 29.2363C227.79 28.6309 227.67 27.9928 227.67 27.3223ZM240.277 24.9199H242.426V23.3184H242.816V25.291H240.668V29.9492H240.277V24.9199ZM229.789 27.2441C229.789 27.7845 229.883 28.2728 230.072 28.709C230.268 29.1452 230.531 29.5163 230.863 29.8223C231.195 30.1283 231.589 30.3659 232.045 30.5352C232.501 30.7044 232.992 30.7891 233.52 30.7891C233.826 30.7891 234.135 30.7598 234.447 30.7012C234.766 30.6361 235.072 30.5417 235.365 30.418C235.665 30.2878 235.945 30.1283 236.205 29.9395C236.472 29.7441 236.7 29.5163 236.889 29.2559C237.084 28.9889 237.237 28.6862 237.348 28.3477C237.465 28.0091 237.523 27.6315 237.523 27.2148C237.523 26.7526 237.416 26.3164 237.201 25.9062C236.986 25.4896 236.697 25.125 236.332 24.8125C235.974 24.5 235.554 24.2526 235.072 24.0703C234.59 23.888 234.083 23.7969 233.549 23.7969C233.015 23.7969 232.517 23.8783 232.055 24.041C231.599 24.2038 231.202 24.4349 230.863 24.7344C230.531 25.0339 230.268 25.3984 230.072 25.8281C229.883 26.2513 229.789 26.7233 229.789 27.2441ZM230.463 27.293C230.463 26.8828 230.538 26.5085 230.688 26.1699C230.844 25.8249 231.059 25.5286 231.332 25.2812C231.605 25.0273 231.931 24.832 232.309 24.6953C232.686 24.5521 233.1 24.4805 233.549 24.4805C233.887 24.4805 234.193 24.5195 234.467 24.5977C234.74 24.6693 234.978 24.7604 235.18 24.8711C235.382 24.9753 235.548 25.0859 235.678 25.2031C235.808 25.3138 235.899 25.4115 235.951 25.4961C235.6 25.3008 235.238 25.1445 234.867 25.0273C234.496 24.9102 234.057 24.8516 233.549 24.8516C233.139 24.8516 232.768 24.9199 232.436 25.0566C232.11 25.1868 231.83 25.3659 231.596 25.5938C231.361 25.8216 231.179 26.0853 231.049 26.3848C230.925 26.6842 230.863 27 230.863 27.332C230.863 27.6445 230.899 27.9375 230.971 28.2109C231.042 28.4844 231.156 28.7383 231.312 28.9727C231.475 29.2005 231.684 29.4121 231.938 29.6074C232.198 29.7962 232.51 29.9622 232.875 30.1055C232.465 30.0339 232.107 29.9134 231.801 29.7441C231.501 29.5684 231.251 29.3568 231.049 29.1094C230.854 28.862 230.707 28.5853 230.609 28.2793C230.512 27.9668 230.463 27.638 230.463 27.293ZM242.426 32.6836V31.082H242.816V33.0547H238.109V32.6836H242.426ZM228.93 31.5801C229.197 31.7949 229.499 31.987 229.838 32.1562C230.176 32.332 230.538 32.4785 230.922 32.5957C231.306 32.7194 231.703 32.8138 232.113 32.8789C232.53 32.944 232.947 32.9766 233.363 32.9766C234.086 32.9766 234.76 32.8854 235.385 32.7031C236.016 32.5273 236.576 32.2799 237.064 31.9609V32.4102C236.576 32.7031 236.01 32.931 235.365 33.0938C234.727 33.263 234.063 33.3477 233.373 33.3477C232.898 33.3477 232.432 33.3086 231.977 33.2305C231.521 33.1589 231.098 33.0482 230.707 32.8984C230.316 32.7487 229.968 32.5632 229.662 32.3418C229.356 32.1204 229.112 31.8665 228.93 31.5801ZM245.17 27.4688C245.17 26.7786 245.316 26.1211 245.609 25.4961C245.909 24.8711 246.326 24.321 246.859 23.8457C247.4 23.3704 248.048 22.9928 248.803 22.7129C249.564 22.4264 250.404 22.2832 251.322 22.2832C252.09 22.2832 252.784 22.3874 253.402 22.5957C254.027 22.7975 254.604 23.084 255.131 23.4551V22.5859H257.23V25.6133H255.229C255.046 25.3854 254.822 25.1641 254.555 24.9492C254.288 24.7279 253.985 24.5326 253.646 24.3633C253.314 24.194 252.95 24.0573 252.553 23.9531C252.156 23.849 251.736 23.7969 251.293 23.7969C250.727 23.7969 250.199 23.888 249.711 24.0703C249.223 24.2526 248.799 24.5065 248.441 24.832C248.083 25.1576 247.8 25.5417 247.592 25.9844C247.39 26.4271 247.289 26.9089 247.289 27.4297C247.289 27.9701 247.396 28.4486 247.611 28.8652C247.833 29.2819 248.135 29.6335 248.52 29.9199C248.904 30.1999 249.359 30.4147 249.887 30.5645C250.414 30.7077 250.987 30.7793 251.605 30.7793C252.608 30.7793 253.493 30.6198 254.262 30.3008C255.036 29.9818 255.727 29.4902 256.332 28.8262L257.367 30.0078C256.658 30.7695 255.834 31.3424 254.896 31.7266C253.959 32.1042 252.878 32.293 251.654 32.293C250.626 32.293 249.708 32.179 248.9 31.9512C248.1 31.7168 247.423 31.388 246.869 30.9648C246.316 30.5417 245.893 30.0339 245.6 29.4414C245.313 28.849 245.17 28.1914 245.17 27.4688ZM255.707 26.2969H257.934V22.9961H258.324V26.668H255.707V26.2969ZM247.992 27.4297C247.992 26.9935 248.077 26.5964 248.246 26.2383C248.415 25.8737 248.646 25.5612 248.939 25.3008C249.239 25.0404 249.59 24.8385 249.994 24.6953C250.398 24.5521 250.834 24.4805 251.303 24.4805C251.583 24.4805 251.866 24.5065 252.152 24.5586C252.439 24.6107 252.709 24.6855 252.963 24.7832C253.217 24.8743 253.445 24.985 253.646 25.1152C253.848 25.2454 254.008 25.3887 254.125 25.5449C253.734 25.3366 253.314 25.1706 252.865 25.0469C252.423 24.9167 251.915 24.8516 251.342 24.8516C250.886 24.8516 250.476 24.9232 250.111 25.0664C249.747 25.2031 249.434 25.3887 249.174 25.623C248.92 25.8574 248.725 26.1309 248.588 26.4434C248.451 26.7559 248.383 27.0846 248.383 27.4297C248.383 27.7747 248.435 28.0807 248.539 28.3477C248.65 28.6081 248.806 28.8457 249.008 29.0605C249.21 29.2689 249.457 29.4544 249.75 29.6172C250.043 29.7734 250.375 29.9167 250.746 30.0469C250.316 30.0078 249.929 29.9167 249.584 29.7734C249.245 29.6302 248.959 29.4479 248.725 29.2266C248.49 28.9987 248.308 28.735 248.178 28.4355C248.054 28.1296 247.992 27.7943 247.992 27.4297ZM246.566 31.5508C246.879 31.7786 247.227 31.9805 247.611 32.1562C247.995 32.3385 248.406 32.4883 248.842 32.6055C249.285 32.7292 249.743 32.8236 250.219 32.8887C250.694 32.9538 251.176 32.9863 251.664 32.9863C252.25 32.9863 252.823 32.9375 253.383 32.8398C253.949 32.7487 254.48 32.6152 254.975 32.4395C255.469 32.2637 255.922 32.0521 256.332 31.8047C256.742 31.5508 257.09 31.2676 257.377 30.9551L257.66 31.209C256.951 31.9316 256.088 32.4688 255.072 32.8203C254.063 33.1784 252.921 33.3574 251.645 33.3574C251.117 33.3574 250.593 33.3184 250.072 33.2402C249.551 33.1621 249.063 33.0449 248.607 32.8887C248.152 32.7389 247.745 32.5501 247.387 32.3223C247.035 32.1009 246.762 31.8438 246.566 31.5508ZM260.717 27.4688C260.717 26.7786 260.844 26.1211 261.098 25.4961C261.352 24.8711 261.732 24.321 262.24 23.8457C262.748 23.3704 263.38 22.9928 264.135 22.7129C264.89 22.4264 265.766 22.2832 266.762 22.2832C267.699 22.2832 268.536 22.4102 269.271 22.6641C270.007 22.9115 270.632 23.2728 271.146 23.748C271.661 24.2233 272.051 24.806 272.318 25.4961C272.592 26.1797 272.729 26.9609 272.729 27.8398H262.855C262.914 28.3086 263.064 28.7253 263.305 29.0898C263.552 29.4544 263.865 29.7637 264.242 30.0176C264.62 30.265 265.046 30.4538 265.521 30.584C266.003 30.7142 266.505 30.7793 267.025 30.7793C267.449 30.7793 267.878 30.7467 268.314 30.6816C268.757 30.61 269.174 30.5156 269.564 30.3984C269.955 30.2812 270.303 30.151 270.609 30.0078C270.915 29.8581 271.15 29.7051 271.312 29.5488H271.684L272.602 30.5449C271.931 31.1178 271.114 31.554 270.15 31.8535C269.193 32.1465 268.135 32.293 266.977 32.293C265.967 32.293 265.072 32.1693 264.291 31.9219C263.516 31.6745 262.862 31.3327 262.328 30.8965C261.801 30.4603 261.4 29.9492 261.127 29.3633C260.854 28.7773 260.717 28.1458 260.717 27.4688ZM273.393 28.5234C273.406 28.4258 273.415 28.3216 273.422 28.2109C273.428 28.0938 273.432 27.9701 273.432 27.8398C273.432 27.2865 273.373 26.7591 273.256 26.2578C273.145 25.75 272.979 25.2812 272.758 24.8516C272.543 24.4154 272.276 24.0182 271.957 23.6602C271.638 23.3021 271.277 22.9961 270.873 22.7422C271.303 22.9115 271.697 23.1458 272.055 23.4453C272.419 23.7383 272.732 24.0964 272.992 24.5195C273.253 24.9427 273.454 25.431 273.598 25.9844C273.747 26.5378 273.822 27.1562 273.822 27.8398C273.822 27.8919 273.819 27.957 273.812 28.0352C273.812 28.1133 273.809 28.2012 273.803 28.2988C273.796 28.3965 273.786 28.4974 273.773 28.6016C273.767 28.6992 273.757 28.7969 273.744 28.8945H264.516C264.639 29.1029 264.867 29.3177 265.199 29.5391C265.531 29.7539 265.961 29.9362 266.488 30.0859C266.163 30.0859 265.857 30.0469 265.57 29.9688C265.29 29.8906 265.033 29.7832 264.799 29.6465C264.571 29.5098 264.369 29.347 264.193 29.1582C264.024 28.9629 263.891 28.7513 263.793 28.5234H273.393ZM270.473 26.6191C270.368 26.1699 270.206 25.7695 269.984 25.418C269.77 25.0664 269.503 24.7734 269.184 24.5391C268.865 24.2982 268.5 24.1159 268.09 23.9922C267.68 23.862 267.23 23.7969 266.742 23.7969C266.215 23.7969 265.733 23.8685 265.297 24.0117C264.867 24.1484 264.49 24.3438 264.164 24.5977C263.839 24.8451 263.568 25.1413 263.354 25.4863C263.145 25.8314 262.999 26.209 262.914 26.6191H270.473ZM263.803 26.1992C264.044 25.6654 264.421 25.2454 264.936 24.9395C265.456 24.6335 266.059 24.4805 266.742 24.4805C267.022 24.4805 267.292 24.5033 267.553 24.5488C267.82 24.5944 268.064 24.666 268.285 24.7637C268.513 24.8548 268.712 24.9688 268.881 25.1055C269.05 25.2422 269.184 25.3984 269.281 25.5742C268.91 25.3268 268.513 25.1445 268.09 25.0273C267.667 24.9102 267.211 24.8516 266.723 24.8516C266.156 24.8516 265.658 24.9688 265.229 25.2031C264.799 25.4375 264.473 25.7695 264.252 26.1992H263.803ZM261.898 31.5703C262.53 32.0195 263.262 32.3678 264.096 32.6152C264.936 32.8626 265.896 32.9863 266.977 32.9863C268.031 32.9863 269.018 32.8659 269.936 32.625C270.86 32.3841 271.693 32.0163 272.436 31.5215L272.699 31.8047C271.859 32.3711 270.974 32.7715 270.043 33.0059C269.118 33.2402 268.148 33.3574 267.133 33.3574C265.811 33.3574 264.714 33.1979 263.842 32.8789C262.976 32.5599 262.328 32.1237 261.898 31.5703Z" fill="#333333"/>
</svg>
